<?xml version="1.0" encoding="UTF-8" standalone="no"?>
<svg
    xmlns="http://www.w3.org/2000/svg"
    width="3200"
    height="2235"
    id="svg2"
    version="1.1">
    <g
        id="field"
        transform="translate(100, 135)">

        <!-- Main Field -->
        <rect
            style="fill:#002d57;stroke:none;fill-opacity:1"
            id="main_blue_borders"
            width="1520"
            height="2020"
            x="-20"
            y="-20" />
        <rect
            style="fill:#680012;stroke:none;fill-opacity:1"
            id="main_red_borders"
            width="1520"
            height="2020"
            x="1500"
            y="-20" />
        <rect
            style="fill:#ab8700;stroke:none;fill-opacity:1"
            id="main_yellow_border"
            width="3040"
            height="20"
            x="-20"
            y="2000" />
        <rect
            style="fill:#f1be01;stroke:none;fill-opacity:1"
            id="mainfield"
            width="3000"
            height="2000"
            x="0"
            y="0" />

        <!-- Blue start zone -->
        <rect
            style="fill:#f2f6f7;stroke:none;fill-opacity:1"
            id="blue_main_white"
            width="400"
            height="2000"
            x="0"
            y="0" />
        <rect
            style="fill:#c5c9cA;stroke:none;fill-opacity:1"
            id="blue_main_white_podium_1"
            width="400"
            height="100"
            x="0"
            y="0" />
        <rect
            style="fill:#c5c9cA;stroke:none;fill-opacity:1"
            id="blue_main_white_podium_2"
            width="400"
            height="100"
            x="0"
            y="1900" />
        <rect
            style="fill:#004c90;stroke:none;fill-opacity:1"
            id="blue_zone_1"
            width="400"
            height="300"
            x="0"
            y="100" />
        <rect
            style="fill:#004c90;stroke:none;fill-opacity:1"
            id="blue_zone_2"
            width="400"
            height="400"
            x="0"
            y="800" />
        <rect
            style="fill:#004c90;stroke:none;fill-opacity:1"
            id="blue_zone_3"
            width="400"
            height="300"
            x="0"
            y="1600" />

        <!-- Red start zone -->
        <rect
            style="fill:#f2f6f7;stroke:none;fill-opacity:1"
            id="red_main_white"
            width="400"
            height="2000"
            x="2600"
            y="0" />
        <rect
            style="fill:#c5c9cA;stroke:none;fill-opacity:1"
            id="red_main_white_podium_1"
            width="400"
            height="100"
            x="2600"
            y="0" />
        <rect
            style="fill:#c5c9cA;stroke:none;fill-opacity:1"
            id="red_main_white_podium_2"
            width="400"
            height="100"
            x="2600"
            y="1900" />
        <rect
            style="fill:#a1011d;stroke:none;fill-opacity:1"
            id="red_zone_1"
            width="400"
            height="300"
            x="2600"
            y="100" />
        <rect
            style="fill:#a1011d;stroke:none;fill-opacity:1"
            id="red_zone_2"
            width="400"
            height="400"
            x="2600"
            y="800" />
        <rect
            style="fill:#a1011d;stroke:none;fill-opacity:1"
            id="red_zone_3"
            width="400"
            height="300"
            x="2600"
            y="1600" />

        <!-- Cake -->
        <path
            style="fill:#eb8a9b;stroke:none;fill-opacity:1"
            d="M 1000 0 a 500 500 0 0 0 1000 0" />
        <path
            style="fill:#E2768C;stroke:none;fill-opacity:1"
            d="M 1100 0 a 400 400 0 0 0 800 0" />
        <path
            style="fill:#ce7179;stroke:none;fill-opacity:1"
            d="M 1200 0 a 300 300 0 0 0 600 0" />
        <path
            style="fill:none;stroke:#15161b;stroke-width:5"
            d="M 1300 0 a 200 200 0 0 0 400 0 M 1500 0 v 200" />

        <!-- Black lines -->
        <path
            style="fill:none;stroke:#15161b;stroke-width:20"
            d="M 0 600 h 400 a 150 150 0 0 1 150 150 V 2000
               M 3000 600 h -400 a 150 150 0 0 0 -150 150 V 2000
               M 550 850 a 150 150 0 0 1 150 -150 H 2300 a 150 150 0 0 1 150 150
               M 550 1550 a 150 150 0 0 0 150 150 H 2300 a 150 150 0 0 0 150 -150
               M 1200 1700 v 300
               M 1800 1700 v 300" />

        <!-- Beacon places -->
        <rect
            style="fill:#15161b;stroke:none;fill-opacity:1"
            id="red_beacon_1"
            width="80"
            height="80"
            x="-100"
            y="-100" />
        <rect
            style="fill:#15161b;stroke:none;fill-opacity:1"
            id="red_beacon_1"
            width="80"
            height="80"
            x="-100"
            y="960" />
        <rect
            style="fill:#15161b;stroke:none;fill-opacity:1"
            id="red_beacon_1"
            width="80"
            height="80"
            x="-100"
            y="2020" />
        <rect
            style="fill:#15161b;stroke:none;fill-opacity:1"
            id="red_beacon_1"
            width="80"
            height="80"
            x="3020"
            y="-100" />
        <rect
            style="fill:#15161b;stroke:none;fill-opacity:1"
            id="red_beacon_1"
            width="80"
            height="80"
            x="3020"
            y="960" />
        <rect
            style="fill:#15161b;stroke:none;fill-opacity:1"
            id="red_beacon_1"
            width="80"
            height="80"
            x="3020"
            y="2020" />
    </g>
</svg>
